<svg height="1047" viewBox="0 0 708.325 1046.349" width="709" xmlns="http://www.w3.org/2000/svg"><path d="m574.074 697.225-10.649 44.873-88.736 104.721s-78.728 37.607-126.665 42.3c-68.781 6.735-186.655-40.765-186.655-40.765l-102.632-135.298-2.006-10.66.914-60.175 15.677-46.586 63.97-76 144.247-54.493 98.714 5.825 61.358 20.731 65.137 42.796 46.893 59.715 19.19 57.648 1.242 45.368z"/><path d="m333.697 895.776c-69.84 0-170.036-40.03-174.571-41.857l-1.537-.619-104.488-137.744-2.378-12.645.938-61.716 16.338-48.552 65.71-78.067 146.906-55.499 100.795 5.948 62.851 21.235 66.601 43.757 48.143 61.307 19.801 59.481 1.287 47.041-11.162 47.036-90.496 106.797-1.16.554c-3.253 1.554-80.236 38.117-128.667 42.858-4.768.467-9.762.685-14.911.685zm-168.563-52.387c13.953 5.457 119.94 45.868 182.305 39.759 43.235-4.233 113.676-36.601 123.515-41.203l86.965-102.631 10.136-42.711-1.196-43.694-18.58-55.815-45.644-58.124-63.674-41.835-59.865-20.227-96.633-5.702-141.587 53.489-62.23 73.932-15.016 44.62-.891 58.634 1.632 8.674 100.763 132.833z"/><path d="m574.074 697.225-11.309 77.83-56 72s-90.123 65.236-149 71c-68.764 6.733-203-46-203-46l-76-81-20.028-77.998 9.73-42.382 35.644-60.701 72.961-57.414 107.715-31.397 82.219 2.644 91.132 30.541 68.95 53.283 31.28 45.49 15.705 44.104z" fill="#fff"/><path d="m344.692 924.649c-71.577 0-186.931-44.971-192.122-47.01l-1.257-.494-77.978-83.108-20.774-80.902 10.263-44.704 36.685-62.473 74.766-58.834 109.749-31.99 84.053 2.704 92.927 31.143 70.495 54.477 32.257 46.911 16.468 46.246-11.751 80.873-57.499 73.927-.693.501c-3.733 2.703-92.127 66.256-151.934 72.111-4.325.423-8.9.623-13.657.623zm-186.487-57.697c13.688 5.256 135.902 51.316 198.976 45.131 53.936-5.28 136.996-63.439 145.385-69.401l54.49-70.059 10.867-74.788-14.942-41.961-30.304-44.07-67.405-52.089-89.337-29.939-80.385-2.585-105.681 30.804-71.157 55.995-34.603 58.928-9.197 40.061 19.283 75.095 74.011 78.88z"/><path d="m249.046 87.76s72.251-43.682 118.176-44.595c54.203-1.077 169.216 56.451 169.216 56.451l72.318 69.375 53.224 107.829 5.318 78.568-17.194 56.314-4.901 8.811-38.69 43.109-81.392 32.354-80.577-3.688-113.128-50.882-51.997-45.431-63.75-100.636-13.42-120.55 20.396-54.274 26.399-32.755z"/><path d="m526.138 502.03-83.01-3.8-114.986-51.717-53.325-46.591-64.957-102.542-13.732-123.356 21.241-56.522 27.668-34.329.904-.547c3.006-1.817 74.168-44.525 121.162-45.459.534-.01 1.074-.016 1.619-.016 55.598 0 165.696 54.746 170.4 57.099l.813.407 73.735 70.734 54.217 109.84 5.473 80.855-17.702 57.979-5.539 9.956-40.081 44.659-83.901 33.352zm-80.175-15.683 78.143 3.577 78.883-31.357 37.299-41.559 4.264-7.666 16.685-54.649-5.163-76.282-52.232-105.819-70.893-68.007c-10.297-5.073-115.794-56.43-165.608-55.42-41.137.817-105.956 38.277-114.302 43.201l-25.117 31.163-19.55 52.025 13.108 117.745 62.543 98.731 50.669 44.271 111.27 50.046z"/><path d="m249.046 87.76 57.719-48.706 83-15 84 14 81 40 58 47 48 87 25 147-35.66 52.649-35.671 24.947-79.29 19.558-100.373-17.642-72.058-38.719-56.666-50.538-46.821-68-28.72-121.102z" fill="#a77df9"/><path d="m535.352 462.337-102.571-18.029-73.532-39.511-57.733-51.491-47.868-69.52-29.32-123.633 19.382-75.74 60.412-50.977 85.603-15.471 85.903 14.317 82.396 40.689 59.43 48.159 49.057 88.916 25.575 150.378-37.632 55.561-37.496 26.222-81.605 20.129zm-98.592-29.513 98.176 17.256 76.976-18.988 33.847-23.671 33.687-49.736-24.426-143.622-46.943-85.084-56.569-45.84-79.604-39.311-82.097-13.683-80.397 14.529-55.027 46.434-17.697 69.154 28.12 118.569 45.775 66.48 55.598 49.586 70.583 37.926z"/><path d="m272.765 46.054-32.603 50.751 57.603-31.751 39.021-19.066 85.738 2.586 79.071 29.373 61.23 42.413 43.066 44.978 47.968 84.85 14.195 63.384-4.289 51.482-36.074 79.167 40.074-36.167 14.462-30.142 20.045-64.316-3.894-67.176-18.369-55.167-66.714-94.56-116.404-74.917-114.556-15.668-55.948 14.905z" fill="#fff"/><path d="m610.237 468.055 47.635-104.539 4.126-49.527-13.8-61.623-47.16-83.421-42.127-43.998-60.112-41.639-77.441-28.766-83.271-2.512-37.555 18.35-78.225 43.118 46.347-72.146 55.675-26 57.625-15.352 26.51 3.626-1.626 11.889-24.123-3.299-54.271 14.458-51.569 24.083-18.858 29.355 37.113-20.449 40.354-19.717 88.205 2.66 80.703 29.979 62.348 43.187 44.005 45.959 48.774 86.278 14.59 65.148-4.452 53.436-24.512 53.793 17.722-15.994 13.762-28.682 19.59-62.857-3.785-65.292-17.838-53.572-65.53-92.882-114.304-73.567-24.358-3.331 1.626-11.889 26.991 3.691 118.504 76.27 67.897 96.237 18.9 56.761 4.004 69.06-20.5 65.775-15.163 31.603z"/><g fill="#a77df9"><path d="m313.708 675.197 39.754 10.424 21.556-103.768z"/><path d="m358.051 693.027-53.942-14.144 83.192-126.662-29.25 140.805zm-34.744-21.515 25.565 6.703 13.862-66.731z"/><path d="m283.984 742.655 42.232 11.035-78.506 131.028z"/><path d="m231.724 923.072 47.939-187.748 55.813 14.583-103.752 173.164zm56.581-173.086-24.609 96.377 53.26-88.892-28.651-7.486z"/><path d="m269.361 718.298 14.838-32.042-145.02-21.386z"/><path d="m272.394 726.029-180.946-74.263 201.569 29.726-20.623 44.538zm-85.484-48.056 79.418 32.594 9.052-19.547z"/><path d="m356.352 741.05 12.36-32.654 139.053 54.085z"/><path d="m558.278 775.691-210.192-29.752 17.158-45.33 193.035 75.082zm-193.66-39.531 92.633 13.111-85.071-33.089z"/></g><path d="m288.074 745.519-18.935-31.459-145.456 76.936z"/><path d="m72.104 811.489 199.249-105.387 25.937 43.094zm194.823-89.471-91.665 48.484 103.597-28.659z"/><path d="m369.246 712.505-19.711-29.502 132.292-33.959z"/><path d="m367.348 720.463-27.505-41.167 184.597-47.386zm-8.121-33.753 11.918 17.837 68.068-38.37-79.987 20.533z"/><path d="m359.734 737.758-38.964 16.304 97.013 113.46z"/><path d="m440.23 903.008-129.37-151.304 51.96-21.741zm-109.549-146.589 64.655 75.617-38.687-86.482z"/><path d="m318.841 674.955-38.189 14.345-42.396-104.326z"/><path d="m277.293 696.971-57.584-141.702 109.454 122.217-51.87 19.484zm-20.489-82.294 27.208 66.952 24.508-9.206-51.715-57.746z"/><path d="m374.08 727.507-30.855 27.914-41.886 1.346-33.244-19.737-1.558-37.488 29.875-26.261 40.837-1.796 30.609 20.674z" fill="#fff"/><path d="m299.781 762.821-37.545-22.292-1.813-43.601 33.615-29.549 44.928-1.975 34.36 23.208 7.239 41.12-34.946 31.615-45.837 1.474zm-25.825-29.29 28.941 17.183 37.936-1.22 26.765-24.213-5.207-29.575-26.857-18.141-36.746 1.616-26.137 22.975z" fill="#fff"/><path d="m400.638 600.401-42.906 34.787 5.033 2.866-22.713 33.933-27.741 37.546 12.971 5.722 27.35-37.835 25.133-33.366 6.395 2.332z"/><path d="m327.301 722.703-24.271-10.706 32.114-43.463 19.048-28.458-7.057-4.02 66.388-53.827-25.748 71.86-7.89-2.876-22.424 29.77-30.159 41.72zm-5.71-15.634 1.672.737 24.576-33.996 27.806-36.915 4.902 1.787 7.206-20.111-19.423 15.748 3.007 1.713-26.46 39.52-23.287 31.517z"/><path d="m215.332 853.944 28.037-65.951 9.396 2.061 29.709-40.14 29.837-40.381 12.971 5.722-29.42 40.699-29.097 41.1 6.469 4.726z"/><path d="m199.202 876.552 40.593-95.486 10.46 2.295 27.397-37.017 32.687-44.239 24.152 10.653-33.766 46.71-25.647 36.228 7.662 5.596-83.537 75.259zm47.742-81.632-15.48 36.416 32.266-29.068-5.277-3.855 32.513-45.926 25.109-34.736-1.792-.79-26.982 36.519-32.025 43.269-8.331-1.828z"/><path d="m340.427 718.733-11.843 10.171-15.559.322-12.077-7.428-1.692-13.94 11.837-9.592 15.38-1.017 11.475 7.982z" fill="#fff"/><path d="m311.385 735.261-16.045-9.868-2.44-20.106 15.896-12.883 19.378-1.28 15.229 10.593 3.548 19.322-16.091 13.819-19.476.403zm-4.829-17.059 8.109 4.988 11.643-.241 7.596-6.523-1.411-7.681-7.721-5.371-11.381.752-7.779 6.304z"/><path d="m573.022 749.994-3.257-53.94-15 58-45.904 66.777-41.104 30.212-75.724 30.567-77.545 9.018-85.968-12.723-67.612-29.829-59.003-49.852-38.741-68.611-3.399-59.559-6.468 56.323 3.007 36.911 7.389 27.456 19.203 39.322 35.535 42.569 60.931 42.092 74.662 25.521 87.292 5.077 87.367-20.146 82.941-52.548 47.118-66.499z" fill="#fff"/><path d="m341.826 951.365-88.968-5.175-76.223-26.054-62.287-43.029-36.524-43.754-19.775-40.494-7.681-28.54-3.099-38.042 6.535-56.907 11.951.343 3.319 58.165 37.526 66.457 57.52 48.601 66.08 29.153 84.382 12.488 75.955-8.833 74.274-29.982 39.68-29.165 44.73-65.069 24.243-93.743 5.603 92.782-14.785 58.124-48.447 68.375-20.078 12.72-6.422-10.137 18.078-11.452 45.789-64.625 13.775-54.15-.912-15.098-5.756 22.257-47.078 68.485-42.528 31.258-77.174 31.152-79.136 9.203-87.553-12.957-69.145-30.505-60.486-51.105-37.071-65.654 2.102 25.798 7.097 26.373 18.632 38.151 34.544 41.382 59.575 41.157 73.102 24.986 85.616 4.98 85.53-19.723 14.467-9.165 6.422 10.137-16.196 10.261z"/><path d="m91.05 1046.349-62.353-26.287-28.697-62.628 28.452-62.945 63.003-25.848 69.35 34.046-3.903 7.95 6.268-2.131 16.687 49.091-24.805 63.694zm-50.401-38.612 50.623 21.343 51.415-20.13 20.144-51.724-14.573-42.874-57.391-28.175-50.456 20.7-22.832 50.513 23.07 50.348z"/><path d="m157.519 864.853-11.641-2.304-15.253 6.814-24.86 28.691 39 23 23.504-24.652 3.625-5.16-1.139-14.758z" fill="#fff"/><path d="m145.82 928.642-49.304-29.077 30.446-35.138 18.21-8.134 15.095 2.987 16.283 14.308 1.493 19.34-5.122 7.291-27.101 28.424zm-30.807-32.099 28.696 16.923 19.907-20.88 2.13-3.032-.786-10.176-10.19-8.954-8.187-1.621-12.297 5.493-19.274 22.246z"/><path d="m147.139 920.773-13.565 10.471-17.344-1.917-13.181-11.297-1.509-16.615 13.098-10.01 17.202 1.151 12.789 11.567z"/><path d="m135.322 937.474-21.591-2.388-16.437-14.087-2.029-22.341 17.522-13.391 21.532 1.44 15.924 14.401 3.355 22.257-18.276 14.108zm-16.593-13.908 13.096 1.448 8.855-6.835-1.665-11.043-9.655-8.732-12.872-.861-8.674 6.628.989 10.89 9.925 8.506z"/></svg>